<?xml version="1.0" encoding="UTF-8" standalone="no"?>
<svg
   xmlns:dc="http://purl.org/dc/elements/1.1/"
   xmlns:cc="http://creativecommons.org/ns#"
   xmlns:rdf="http://www.w3.org/1999/02/22-rdf-syntax-ns#"
   xmlns:svg="http://www.w3.org/2000/svg"
   xmlns="http://www.w3.org/2000/svg"
   xmlns:sodipodi="http://sodipodi.sourceforge.net/DTD/sodipodi-0.dtd"
   xmlns:inkscape="http://www.inkscape.org/namespaces/inkscape"
   version="1.0"
   width="1280.000000pt"
   height="1185.000000pt"
   viewBox="0 0 1280.000000 1185.000000"
   preserveAspectRatio="xMidYMid meet"
   id="svg6"
   sodipodi:docname="checkbox.svg"
   inkscape:version="0.92.4 (5da689c313, 2019-01-14)">
  <metadata
     id="metadata12">
    <rdf:RDF>
      <cc:Work
         rdf:about="">
        <dc:format>image/svg+xml</dc:format>
        <dc:type
           rdf:resource="http://purl.org/dc/dcmitype/StillImage" />
        <dc:title></dc:title>
      </cc:Work>
    </rdf:RDF>
  </metadata>
  <defs
     id="defs10" />
  <sodipodi:namedview
     pagecolor="#ffffff"
     bordercolor="#666666"
     borderopacity="1"
     objecttolerance="10"
     gridtolerance="10"
     guidetolerance="10"
     inkscape:pageopacity="0"
     inkscape:pageshadow="2"
     inkscape:window-width="1280"
     inkscape:window-height="962"
     id="namedview8"
     showgrid="false"
     inkscape:pagecheckerboard="true"
     inkscape:zoom="0.14936709"
     inkscape:cx="853.33333"
     inkscape:cy="790"
     inkscape:window-x="-8"
     inkscape:window-y="-8"
     inkscape:window-maximized="1"
     inkscape:current-layer="svg6" />
  <g
     transform="translate(0.000000,1185.000000) scale(0.100000,-0.100000)"
     fill="#000000"
     stroke="none"
     id="g4"
     style="fill:#ffffff;fill-opacity:1">
    <path
       d="M12525 11747 c-1052 -607 -2241 -1476 -3359 -2456 -901 -790 -1862 -1742 -2752 -2726 -614 -680 -1276 -1471 -1874 -2240 -208 -268 -746 -986 -915 -1223 -87 -122 -135 -181 -145 -178 -8 2 -769 430 -1690 950 l-1675 947 -38 -43 c-20 -24 -42 -50 -47 -59 -9 -16 133 -182 3754 -4381 l291 -338 40 0 40 0 227 453 c1121 2231 2222 4068 3471 5792 1377 1899 2936 3648 4690 5259 125 115 227 212 227 216 0 5 -69 103 -82 116 -2 1 -75 -39 -163 -89z"
       id="path2"
       style="fill:#ffffff;fill-opacity:1" />
  </g>
</svg>
